<?xml version="1.0" encoding="utf-8"?>
<!-- Generator: Adobe Illustrator 16.0.0, SVG Export Plug-In . SVG Version: 6.00 Build 0)  -->
<!DOCTYPE svg PUBLIC "-//W3C//DTD SVG 1.1//EN" "http://www.w3.org/Graphics/SVG/1.1/DTD/svg11.dtd">
<svg version="1.1" id="Layer_1" xmlns="http://www.w3.org/2000/svg" xmlns:xlink="http://www.w3.org/1999/xlink" x="0px" y="0px"
	 width="229px" height="140px" viewBox="0 0 229 140" enable-background="new 0 0 229 140" xml:space="preserve">
<path fill="#222E3E" d="M41.137,113.267V21.815c0-3.188,2.586-5.774,5.773-5.774h135.181c3.188,0,5.772,2.586,5.772,5.774v91.451"/>
<path fill="#DDDEDF" d="M187.863,105.307v7.96c0,3.188-2.584,5.771-5.772,5.771H46.91c-3.188,0-5.773-2.584-5.773-5.771v-7.96"/>
<rect x="46.828" y="21.979" fill="#FFFFFF" width="135.344" height="77.545"/>
<path fill="#B1B3B4" d="M130.4,119.038h-15.9H98.598c0.724,10.844-7.949,16.986-7.949,16.986H114.5h23.852
	C138.352,136.024,129.678,129.882,130.4,119.038z"/>
<rect x="90.648" y="136.023" fill="#DDDEDF" width="47.703" height="3.977"/>
<rect x="65.691" y="34.345" fill="#3E4A5A" width="19.617" height="2.52"/>
<rect x="65.695" y="39.912" fill="#3E4A5A" width="58.821" height="2.518"/>
<rect x="65.695" y="45.479" fill="#3E4A5A" width="58.821" height="2.519"/>
<rect x="65.695" y="51.046" fill="#3E4A5A" width="58.821" height="2.52"/>
<rect x="133.866" y="35.524" fill="#0998CB" width="29.413" height="18.043"/>
<rect x="133.866" y="61.93" fill="#DDDEDF" width="29.413" height="26.406"/>
<rect x="65.691" y="61.93" fill="#DDDEDF" width="58.825" height="26.406"/>
<line fill="none" stroke="#0998CB" stroke-width="3.1406" stroke-miterlimit="10" x1="35.861" y1="53.11" x2="18.123" y2="53.11"/>
<circle fill="#0998CB" cx="14.261" cy="53.11" r="5.281"/>
<line fill="none" stroke="#0998CB" stroke-width="3.1406" stroke-miterlimit="10" x1="35.861" y1="37.846" x2="18.123" y2="37.846"/>
<circle fill="#0998CB" cx="14.261" cy="37.846" r="5.281"/>
<circle fill="#FFFFFF" cx="14.262" cy="37.846" r="2.127"/>
<line fill="none" stroke="#0998CB" stroke-width="3.1406" stroke-miterlimit="10" x1="193.14" y1="69.609" x2="210.877" y2="69.609"/>
<circle fill="#0998CB" cx="214.738" cy="69.609" r="5.281"/>
<line fill="none" stroke="#0998CB" stroke-width="3.1406" stroke-miterlimit="10" x1="193.14" y1="84.874" x2="210.877" y2="84.874"/>
<circle fill="#0998CB" cx="214.738" cy="84.874" r="5.281"/>
<circle fill="#FFFFFF" cx="214.738" cy="84.874" r="2.127"/>
</svg>
