<svg height="46" viewBox="0 0 46 46" width="46" xmlns="http://www.w3.org/2000/svg"><g fill="none" fill-rule="evenodd" stroke-linecap="round" stroke-linejoin="round" stroke-width="2" transform="translate(1 1)"><g stroke="#cfd4d8"><path d="m38.9230769 43.1538462h-33.84615382c-2.33707693 0-4.23076923-1.8936924-4.23076923-4.2307693v-33.84615382c0-2.33707693 1.8936923-4.23076923 4.23076923-4.23076923h33.84615382c2.3370769 0 4.2307693 1.8936923 4.2307693 4.23076923v33.84615382c0 2.3370769-1.8936924 4.2307693-4.2307693 4.2307693z"/><path d="m11 .84615385v27.07692305"/><path d="m22.8461538 17.7692308v25.3846154"/><path d="m33 .84615385v16.92307695"/><path d="m16.0769231 33h27.0769231"/><path d="m1.69230769 22.8461538h11.00000001"/><path d="m.84615385 11h16.92307695"/><path d="m.84615385 33h6.76923077"/><path d="m11 43.1538462v-5.0769231"/><path d="m22.8461538 7.61538462v-6.76923077"/><path d="m26.2307692 11h16.923077"/><path d="m36.3846154 22.8461538h6.7692308"/><path d="m33 26.2307692v16.923077"/></g><path d="m39.7692308 14.3846154-6.6643077 8.5410769-10.5769231-11-9.8356923 21.0743077-8.46153847 6.7692308" stroke="#21b573"/><path d="m22.8461538 22.8461538h5.0769231" stroke="#cfd4d8"/></g></svg>