<svg height="49" viewBox="0 0 48 49" width="48" xmlns="http://www.w3.org/2000/svg"><g fill="none" fill-rule="evenodd" stroke-linecap="round" stroke-linejoin="round" stroke-width="2" transform="translate(1 1)"><g stroke="#21b573"><path d="m36 18.46h4v-8h-4z"/><path d="m26 18.46h4v-8h-4z"/><path d="m36 30.46h4v-8h-4z"/><path d="m26 30.46h4v-8h-4z"/><path d="m36 42.46h4v-8h-4z"/><path d="m26 42.46h4v-8h-4z"/><path d="m4 30.46h4v-8h-4z"/><path d="m14 30.46h4v-8h-4z"/><path d="m4 42.46h4v-8h-4z"/><path d="m14 42.46h4v-8h-4z"/></g><g stroke="#cfd4d8"><path d="m20 .46v12.728l2-.728v34h24v-38z"/><path d="m0 46.46h22v-34l-22 8z"/></g></g></svg>