<svg height="512pt" viewBox="-7 0 512 512" width="512pt" xmlns="http://www.w3.org/2000/svg"><path d="m249.847656 266.003906h-.339844c-4.175781 0-7.558593 3.382813-7.558593 7.558594 0 4.171875 3.382812 7.554688 7.558593 7.554688h.339844c4.171875 0 7.554688-3.382813 7.554688-7.554688 0-4.175781-3.382813-7.558594-7.554688-7.558594zm0 0"/><path d="m491.0625 357.472656c-4.050781-4.304687-9.398438-7.160156-15.140625-8.1875v-53.398437c0-20.027344-13.542969-31.089844-26.285156-31.335938-10.613281-.222656-18.617188 6.875-19 16.824219-.226563 5.785156-12.800781 6.78125-22.792969 6.933594l-7.757812-25.585938c-.011719-.042968-.027344-.085937-.039063-.128906-7.660156-23.710938-26.480469-29.089844-44.679687-34.289062-2.433594-.699219-4.949219-1.417969-7.457032-2.179688l-40.507812-12.324219c14.929687-13.753906 26.421875-31.320312 31.457031-48.773437 5.332031-1.332032 10.636719-4.335938 14.964844-8.609375 5.800781-5.722657 9.125-12.964844 9.125-19.871094v-8.449219c0-7.089844-4.605469-13.117187-10.976563-15.265625.171875-.980469.277344-1.984375.277344-3.015625v-9.15625c0-7.355468-4.617188-13.636718-11.097656-16.136718-5.117188-31.320313-25.511719-57.785157-54.566406-70.632813-3.183594-8.121094-11.097657-13.890625-20.339844-13.890625h-34.550782c-9.171874 0-17.03125 5.695312-20.25 13.738281-29.3125 12.828125-49.851562 39.453125-54.917968 71.019531-6.148438 2.648438-10.46875 8.777344-10.46875 15.902344v9.15625c0 1.148438.117187 2.269532.332031 3.355469-5.878906 2.394531-10.042969 8.179687-10.042969 14.925781v8.449219c0 6.90625 3.328125 14.152344 9.132813 19.878906 4.332031 4.277344 9.636719 7.277344 14.96875 8.609375 5.039062 17.476563 16.519531 35.035156 31.4375 48.773438l-18.429688 5.617187c-.273437.0625-.539062.144531-.804687.246094l-21.183594 6.453125c-2.503906.761719-5.019531 1.480469-7.453125 2.175781-18.199219 5.203125-37.015625 10.582031-44.675781 34.292969-.015625.042969-.027344.082031-.039063.125l-7.777343 25.617188c-10.257813-.019532-25.683594-.546876-25.9375-6.957032-.382813-9.957031-8.394532-17.027344-19.003907-16.828125-12.738281.246094-26.28125 11.308594-26.28125 31.332031v53.78125c-5.0625 1.257813-9.734375 3.953126-13.363281 7.808594-4.867188 5.175782-7.3125 11.804688-6.890625 18.664063l2.03125 33.402343c.730469 11.882813 8.082031 21.449219 18.222656 24.941407v27.4375c0 37.847656 15.960938 49.996093 65.675781 49.996093l152.746094.085938h.003906c4.171876 0 7.554688-3.382812 7.554688-7.554688.003906-4.171874-3.378906-7.558593-7.550781-7.558593l-152.75-.085938c-46.207031 0-50.566407-9.566406-50.566407-34.882812v-26.011719h6.445313c1.964844 0 3.851563-.105469 5.65625-.316406 7.8125-.90625 14.09375-3.78125 18.714844-8.574219 10.300781-10.675781 9.691406-27.566406 9.152343-42.46875-.113281-3.136719-.222656-6.101563-.222656-8.867187 0-14.792969-12.023437-26.828126-26.808594-26.828126h-12.9375v-52.96875c0-12.65625 7.496094-16.144531 11.460938-16.222656 2.347656-.042968 3.546875.730469 3.605469 2.308594.222656 5.632812 2.945312 15.660156 18.695312 19.53125 8.097657 1.992188 17.574219 1.964844 25.191407 1.945312l305.371093-.003906 2.113281.003906h.070313c.109375.003907.214844.027344.328125.027344s.234375-.023437.351562-.027344c7.484376.015626 16.601563-.019531 24.445313-1.949218 15.746094-3.867188 18.46875-13.894532 18.691406-19.535156.0625-1.570313 1.273438-2.347657 3.609375-2.300782 3.960938.074219 11.457032 3.566406 11.457032 16.222656v52.964844h-11.15625c-14.785157 0-26.808594 12.035156-26.808594 26.828125 0 2.769531-.109375 5.730469-.222656 8.871094-.539063 14.898437-1.148438 31.789063 9.152343 42.46875 4.621094 4.792969 10.902344 7.664063 18.714844 8.574219 1.804687.210937 3.691406.316406 5.65625.316406h4.664063v26.007812c0 25.320313-4.355469 34.886719-50.539063 34.886719l-137.078125.054688c-4.171875.003906-7.554688 3.386719-7.554688 7.5625.003907 4.171875 3.386719 7.554687 7.558594 7.554687h.003906l137.074219-.058594c49.699219 0 65.652344-12.148437 65.652344-50v-26.894531c11.046875-2.933593 19.226563-12.914062 19.996094-25.484375l2.035156-33.394531c.421875-6.863281-2.027344-13.492187-6.890625-18.667969zm-442.710938 6.492188c6.449219 0 11.695313 5.257812 11.695313 11.714844 0 .757812.007813 1.523437.019531 2.292968.039063 2.304688.121094 4.664063.210938 7.121094.242187 6.6875.5 13.882812-.355469 19.972656-.667969 4.738282-2.011719 8.808594-4.566406 11.457032-2.773438 2.871093-7.183594 4.269531-13.496094 4.269531h-12.984375c-6.25 0-11.285156-5.234375-11.710938-12.171875l-2.03125-33.40625c-.164062-2.65625.835938-5.28125 2.816407-7.386719 2.308593-2.457031 5.550781-3.863281 8.894531-3.863281zm94.742188-75.636719h-35.773438l6.421876-21.152344c4.5-13.867187 13.378906-18.097656 29.351562-22.863281zm136.328125-8.863281c.457031.09375.917969.175781 1.382813.238281.917968.125 1.828124.1875 2.726562.1875 6.535156 0 12.539062-3.21875 17.164062-9.285156l26.257813-35.058594 14.136719 4.300781v48.480469h-61.667969zm32.152344-48.597656-22.9375 30.625c-2.605469 3.421874-4.625 3.3125-5.386719 3.273437-2.226562-.121094-4.464844-1.664063-5.554688-2.769531-.113281-.132813-.234374-.261719-.355468-.386719-.0625-.078125-.136719-.164063-.183594-.230469l-9.796875-24.140625c1.980469-.585937 3.996094-1.261719 6.074219-2.035156 6.734375-2.511719 13.269531-5.921875 19.46875-10.015625zm36.261719-94.320313c0 2.847656-1.730469 6.253906-4.628907 9.113281-.5.492188-1.023437.945313-1.558593 1.375.003906-.199218.015624-.402344.015624-.601562l.207032-19.339844h4.96875c.53125 0 .996094.46875.996094 1.003906zm-116.140626-121.433594h34.550782c3.710937 0 6.726562 3.011719 6.726562 6.714844v24.75c0 3.703125-3.015625 6.710937-6.726562 6.710937h-34.550782c-3.695312 0-6.699218-3.007812-6.699218-6.710937v-24.75c0-3.703125 3.003906-6.714844 6.699218-6.714844zm-21.8125 16.308594v15.15625c0 12.035156 9.785157 21.828125 21.8125 21.828125h34.550782c12.042968 0 21.84375-9.792969 21.84375-21.828125v-14.992187c19.238281 11.132812 32.855468 29.867187 37.480468 51.769531h-153.425781c4.636719-22.019531 18.355469-40.820313 37.738281-51.933594zm-53.789062 114.246094c-2.898438-2.863281-4.632812-6.273438-4.632812-9.121094v-8.449219c0-.527344.460937-1.003906.96875-1.003906h5l.203124 19.257812c0 .226563.015626.457032.019532.683594-.539063-.429687-1.0625-.878906-1.558594-1.367187zm18.078125 12.25c-.039063-.847657-.214844-1.65625-.507813-2.410157-.589843-3.125-.917968-6.21875-.917968-9.234374l-.199219-19.171876 61.683594.050782h.003906c4.171875 0 7.554687-3.378906 7.558594-7.550782.003906-4.175781-3.378907-7.5625-7.550781-7.566406l-69.308594-.054687c-.007813 0-.015625 0-.023438 0h-1.585937c-1.164063 0-2.152344-.992188-2.152344-2.164063v-9.15625c0-1.1875.988281-2.191406 2.152344-2.191406h171.632812c1.183594 0 2.179688 1.003906 2.179688 2.191406v9.15625c0 1.171875-.996094 2.164063-2.179688 2.164063h-66.226562c-4.171875 0-7.554688 3.382812-7.554688 7.554687 0 4.175782 3.382813 7.558594 7.554688 7.558594h58.023437l-.203125 19.257812c0 2.925782-.308593 5.921876-.871093 8.960938-.367188.867188-.578126 1.816406-.59375 2.816406-6.03125 25.453125-30.050782 52.882813-56.929688 62.914063-13.652344 5.082031-23.316406 5.089843-36.9375.023437-6.691406-2.480468-13.199219-6.046875-19.304688-10.390625-.042968-.03125-.089843-.0625-.132812-.089843-18.453125-13.171876-33.132812-33.464844-37.609375-52.667969zm45.703125 130.410156h-61.667969v-48.457031l14.167969-4.316406 26.265625 35.097656c4.589844 6.023437 10.589844 9.238281 17.125 9.238281.894531 0 1.808594-.0625 2.722656-.1875.46875-.0625.929688-.144531 1.386719-.238281zm2.089844-26.722656c-.125.128906-.246094.257812-.363282.394531-1.09375 1.101562-3.328124 2.648438-5.550781 2.765625-.765625.039063-2.78125.148437-5.347656-3.21875l-22.957031-30.675781 18.640625-5.679688c6.226562 4.113282 12.800781 7.535156 19.570312 10.046875 2.050781.761719 4.046875 1.425781 6.003907 2.007813l-9.816407 24.132812c-.042969.066406-.121093.148438-.179687.226563zm13.027344 7.726562c.4375-.699219.804687-1.394531 1.078124-2.078125l11.117188-27.328125c.820312.035157 1.640625.0625 2.460938.0625.828124 0 1.65625-.027343 2.488281-.066406l11.085937 27.320313c.277344.683593.644532 1.386718 1.085938 2.085937v19h-29.320313v-18.996094zm121.210937 18.996094v-44.042969c16.027344 4.78125 24.929687 8.996094 29.4375 22.890625l6.417969 21.152344zm126.664063 86.890625-2.03125 33.398438c-.425782 6.941406-5.460938 12.171874-11.707032 12.171874h-12.988281c-6.308594 0-10.722656-1.394531-13.492187-4.265624-2.554688-2.652344-3.898438-6.71875-4.566407-11.457032-.859375-6.089844-.601562-13.285156-.359375-19.972656.121094-3.277344.230469-6.375.230469-9.414062 0-6.460938 5.246094-11.714844 11.695313-11.714844h21.511718c3.339844 0 6.582032 1.40625 8.890625 3.863281 1.980469 2.105469 2.980469 4.730469 2.816407 7.390625zm0 0"/></svg>