<svg height="512pt" viewBox="-7 0 511 512" width="512pt" xmlns="http://www.w3.org/2000/svg"><g fill-rule="evenodd"><path d="m402.753906 295.910156-9.402344-30.996094c-7.308593-22.632812-26.082031-25.144531-47.140624-31.5625l-54.058594-16.445312h-84.035156l-53.945313 16.445312c-21.058594 6.417969-39.832031 8.929688-47.171875 31.5625l-9.371094 30.96875 150.996094 31.167969zm0 0" fill="#55b8e6"/><path d="m28.359375 461.917969c0 31.449219 9.878906 42.441406 58.121094 42.441406l162.144531.054687 162.144531-.054687c48.214844 0 58.09375-10.992187 58.09375-42.441406 0-67.957031 0-90.109375 0-166.035157 0-27.492187-29.582031-29.609374-30.175781-14.210937-.59375 15.03125-24.050781 14.210937-38.445312 14.210937-99.875 0-199.71875 0-299.59375 0h-3.667969c-14.394531 0-37.855469.820313-38.445313-14.210937-.59375-15.398437-30.175781-13.28125-30.175781 14.210937zm0 0" fill="#e8e8e8"/><path d="m28.359375 356.410156v105.507813c0 31.449219 9.878906 42.441406 58.121094 42.441406l8.804687.027344c-19.617187-5.199219-24.5-17.207031-24.5-39.304688v-166.003906c0-1.78125.113282-3.449219.335938-5.003906-7-1.808594-12.304688-5.367188-12.585938-12.402344-.59375-15.398437-30.175781-13.28125-30.175781 14.210937zm0 0" fill="#ccc"/><path d="m430.894531 375.679688c0 21.503906-6.097656 52.667968 25.746094 52.667968h12.984375c10.585938 0 18.605469-8.671875 19.25-19.269531l2.035156-33.398437c.648438-10.566407-8.667968-19.269532-19.25-19.269532h-21.511718c-10.585938 0-19.253907 8.671875-19.253907 19.269532zm0 0" fill="#ffd9b0"/><path d="m8.089844 375.679688 2.03125 33.398437c.621094 10.257813 8.160156 18.707031 18.238281 19.242187.335937.027344.675781.027344 1.015625.027344h12.984375c31.839844 0 25.746094-31.164062 25.746094-52.667968 0-10.597657-8.667969-19.269532-19.253907-19.269532h-21.511718c-10.585938 0-19.902344 8.703125-19.25 19.269532zm0 0" fill="#ffd9b0"/><path d="m8.089844 375.679688 2.03125 33.398437c.621094 10.257813 8.160156 18.707031 18.238281 19.242187.335937.027344.675781.027344 1.015625.027344h12.984375c1.835937 0 3.527344-.113281 5.136719-.308594-8.890625-1.609374-15.300782-9.523437-15.863282-18.960937l-2.035156-33.398437c-.648437-10.566407 8.667969-19.269532 19.253906-19.269532h-21.511718c-10.585938 0-19.902344 8.703125-19.25 19.269532zm0 0" fill="#ebab92"/><path d="m490.910156 375.679688-2.035156 33.398437c-.617188 10.257813-8.15625 18.707031-18.234375 19.242187-.335937.027344-.675781.027344-1.015625.027344h-12.984375c-1.835937 0-3.558594-.113281-5.140625-.308594 8.867188-1.609374 15.300781-9.523437 15.867188-18.960937l2.03125-33.398437c.652343-10.566407-8.664063-19.269532-19.25-19.269532h21.511718c10.582032 0 19.898438 8.703125 19.25 19.269532zm0 0" fill="#ebab92"/><path d="m175.738281 226.769531 29.414063 39.304688c9.710937 12.742187 22.609375 2.796875 24.417968-1.667969l13.238282-32.550781c-.027344 0-.027344 0-.027344 0-11.546875-1.753907-23.601562-7.40625-33.113281-13.875-.140625-.085938-1.550781-1.046875-1.523438-1.074219zm0 0" fill="#507fcf"/><path d="m165.40625 119.535156 10.105469 16.363282-8.382813 22.347656c-10.671875.140625-22.722656-10.878906-22.722656-21.699219v-8.449219c0-4.691406 3.835938-8.5625 8.523438-8.5625zm0 0" fill="#de9376"/><path d="m218.136719 19.339844c-29.414063 11.527344-50.953125 38.851562-54.3125 71.574218l85.816406 14.324219 85.25-14.324219c-3.359375-32.636718-24.785156-59.902343-54.058594-71.460937zm0 0" fill="#ffcc73"/><path d="m217.914062 21.828125v24.722656c0 7.882813 6.433594 14.296875 14.28125 14.296875h34.550782c7.851562 0 14.285156-6.414062 14.285156-14.296875v-24.722656c0-.792969-.054688-1.613281-.199219-2.375-1.15625-6.753906-7.027343-11.894531-14.085937-11.894531h-34.550782c-7 0-12.871093 5.113281-14.054687 11.78125-.144531.820312-.226563 1.640625-.226563 2.488281zm0 0" fill="#f59556"/><path d="m218.136719 19.339844c-29.414063 11.527344-50.953125 38.851562-54.3125 71.574218h22.273437c2.398438-23.625 14.3125-44.449218 31.816406-58.519531v-10.566406c0-.847656.082032-1.667969.222657-2.488281zm0 0" fill="#f59556"/><path d="m217.914062 32.394531v14.15625c0 7.882813 6.433594 14.296875 14.28125 14.296875h20.269532c-7.847656 0-14.285156-6.414062-14.285156-14.296875v-24.722656c0-.847656.085937-1.667969.226562-2.488281 1.1875-6.667969 7.058594-11.78125 14.058594-11.78125h-20.269532c-7 0-12.871093 5.113281-14.054687 11.78125-.144531.820312-.226563 1.640625-.226563 2.488281zm0 0" fill="#d65036"/><path d="m334.890625 119.535156-10.132813 16.363282 8.382813 22.347656c10.699219.140625 22.753906-10.878906 22.753906-21.699219v-8.449219c0-4.691406-3.867187-8.5625-8.554687-8.5625zm0 0" fill="#de9376"/><path d="m165.6875 146.351562c0 24.101563 17.785156 53.066407 42.429688 70.554688h.027343c.113281.085938.226563.171875.339844.253906.027344.03125.054687.03125.085937.058594 5.53125 3.871094 11.796876 7.402344 18.289063 10.085938.734375.28125 1.496094.5625 2.230469.847656 4.882812 1.808594 9.34375 3.050781 13.691406 3.703125 4.96875.761719 9.765625.761719 14.707031 0 4.375-.652344 8.890625-1.894531 13.804688-3.730469 7.3125-2.742188 14.339843-6.585938 20.859375-11.21875 24.644531-17.492188 42.429687-46.453125 42.429687-70.554688l.308594-26.816406-85.25-14.296875-84.234375 14.296875zm0 0" fill="#ffd9b0"/><path d="m163.824219 90.914062c-5.332031 0-9.710938 4.378907-9.710938 9.71875v9.183594c0 5.339844 4.378907 9.71875 9.710938 9.71875h171.628906c5.367187 0 9.742187-4.378906 9.742187-9.71875v-9.183594c0-5.339843-4.375-9.71875-9.742187-9.71875zm0 0" fill="#f59556"/><path d="m154.113281 100.632812v9.183594c0 5.339844 4.378907 9.71875 9.710938 9.71875h22.21875c-5.335938-.027344-9.65625-4.40625-9.65625-9.71875v-9.183594c0-5.339843 4.375-9.71875 9.710937-9.71875h-22.273437c-5.332031 0-9.710938 4.378907-9.710938 9.71875zm0 0" fill="#d65036"/><path d="m257.515625 231.855469 13.210937 32.550781c1.808594 4.464844 14.707032 14.410156 24.417969 1.667969l29.441407-39.304688-32.433594-9.863281c-13.125 9.355469-19.984375 10.964844-34.664063 14.949219zm0 0" fill="#507fcf"/><path d="m151.152344 234.257812v61.625h76.78125v-29.074218c-4.152344 4.632812-14.59375 10.003906-22.78125-.734375l-29.414063-39.304688-21.566406 6.585938c-1.015625.308593-2.03125.589843-3.019531.902343zm0 0" fill="#f59556"/><path d="m272.363281 266.808594v29.074218h76.785157v-61.652343c-.960938-.285157-1.949219-.59375-2.9375-.878907l-21.625-6.582031-29.441407 39.304688c-8.1875 10.738281-18.628906 5.367187-22.78125.734375zm0 0" fill="#f59556"/><path d="m151.152344 234.257812v17.746094c7-2.773437 14.902344-4.664062 23.203125-7.066406l12.277343-3.585938-10.894531-14.582031-21.566406 6.582031c-1.015625.3125-2.03125.59375-3.019531.90625zm3.019531-.90625" fill="#d65036"/><path d="m208.144531 216.90625c-.027343 0-.027343 0-.027343 0zm-32.40625 9.863281 10.894531 14.582031 43.785157-12.6875c-.878907-.3125-1.722657-.652343-2.570313-.988281 0 0-.027344 0-.058594 0-.308593-.144531-.621093-.253906-.929687-.367187-.027344-.03125-.054687-.03125-.085937-.058594h-.027344c-6.011719-2.484375-11.796875-5.679688-17.019532-9.210938-.027343-.027343-.027343-.027343-.058593-.054687-.054688-.03125-.226563-.140625-.421875-.285156-.085938-.054688-.199219-.140625-.28125-.195313-.144532-.085937-.285156-.199218-.394532-.285156l-.085937-.054688-.058594-.027343c-.027343-.03125-.027343-.03125-.054687-.058594-.054688-.027344-.113282-.085937-.167969-.113281 0 0-.03125 0-.03125-.027344-.027344 0-.027344-.027344-.027344-.027344h-.027343zm0 0" fill="#6052c4"/><path d="m151.152344 234.257812c-19.816406 5.792969-37.179688 9.125-44.125 30.65625l-9.398438 30.96875h23.683594l5.871094-19.382812c4.460937-13.761719 13.097656-20.175781 23.964844-24.496094v-17.746094zm0 0" fill="#507fcf"/></g><path d="m250.347656 266.003906h-.339844c-4.175781 0-7.558593 3.382813-7.558593 7.558594 0 4.171875 3.382812 7.554688 7.558593 7.554688h.339844c4.171875 0 7.554688-3.382813 7.554688-7.554688 0-4.175781-3.382813-7.558594-7.554688-7.558594zm0 0"/><path d="m491.5625 357.472656c-4.050781-4.304687-9.398438-7.160156-15.140625-8.1875v-53.398437c0-20.027344-13.542969-31.089844-26.285156-31.335938-10.613281-.222656-18.617188 6.875-19 16.824219-.226563 5.785156-12.800781 6.78125-22.792969 6.933594l-7.757812-25.585938c-.011719-.042968-.027344-.085937-.042969-.128906-7.660157-23.710938-26.476563-29.089844-44.675781-34.289062-2.433594-.699219-4.949219-1.417969-7.457032-2.179688l-40.507812-12.324219c14.929687-13.753906 26.421875-31.320312 31.457031-48.773437 5.332031-1.332032 10.636719-4.335938 14.964844-8.609375 5.800781-5.722657 9.125-12.964844 9.125-19.871094v-8.449219c0-7.089844-4.605469-13.117187-10.976563-15.265625.171875-.980469.277344-1.984375.277344-3.015625v-9.15625c0-7.355468-4.617188-13.636718-11.097656-16.136718-5.117188-31.320313-25.511719-57.785157-54.566406-70.632813-3.183594-8.121094-11.097657-13.890625-20.339844-13.890625h-34.550782c-9.171874 0-17.03125 5.695312-20.25 13.738281-29.3125 12.828125-49.851562 39.453125-54.914062 71.019531-6.152344 2.648438-10.472656 8.777344-10.472656 15.902344v9.15625c0 1.148438.121094 2.269532.335937 3.355469-5.882812 2.394531-10.046875 8.179687-10.046875 14.925781v8.449219c0 6.90625 3.328125 14.152344 9.132813 19.878906 4.332031 4.277344 9.636719 7.277344 14.96875 8.609375 5.039062 17.476563 16.519531 35.035156 31.4375 48.773438l-18.429688 5.617187c-.273437.0625-.542969.144531-.804687.246094l-21.183594 6.453125c-2.503906.761719-5.019531 1.480469-7.453125 2.175781-18.199219 5.203125-37.015625 10.582031-44.675781 34.292969-.015625.042969-.027344.082031-.042969.125l-7.773437 25.617188c-10.257813-.019532-25.683594-.546876-25.9375-6.957032-.382813-9.957031-8.394532-17.027344-19.003907-16.828125-12.742187.246094-26.28125 11.308594-26.28125 31.332031v53.78125c-5.0625 1.257813-9.734375 3.953126-13.363281 7.808594-4.867188 5.175782-7.3125 11.804688-6.890625 18.664063l2.03125 33.402343c.730469 11.882813 8.082031 21.449219 18.222656 24.941407v27.4375c0 37.847656 15.960938 49.996093 65.675781 49.996093l152.746094.085938h.003906c4.171876 0 7.554688-3.382812 7.554688-7.554688.003906-4.171874-3.378906-7.558593-7.550781-7.558593l-152.75-.085938c-46.207031 0-50.566407-9.566406-50.566407-34.882812v-26.011719h6.445313c1.964844 0 3.851563-.105469 5.652344-.316406 7.816406-.90625 14.097656-3.78125 18.71875-8.574219 10.296875-10.675781 9.6875-27.566406 9.148437-42.46875-.109375-3.136719-.21875-6.101563-.21875-8.867187 0-14.792969-12.027344-26.828126-26.808594-26.828126h-12.9375v-52.96875c0-12.65625 7.496094-16.144531 11.460938-16.222656 2.347656-.042968 3.546875.730469 3.609375 2.308594.21875 5.632812 2.945313 15.660156 18.691406 19.53125 8.101563 1.992188 17.574219 1.964844 25.195313 1.945312l305.371094-.003906 2.109374.003906h.070313c.109375.003907.21875.027344.328125.027344.117188 0 .234375-.023437.351562-.027344 7.484376.015626 16.601563-.019531 24.445313-1.949218 15.746094-3.867188 18.472656-13.894532 18.691406-19.535156.0625-1.570313 1.273438-2.347657 3.609375-2.300782 3.964844.074219 11.460938 3.566406 11.460938 16.222656v52.964844h-11.160156c-14.78125 0-26.808594 12.035156-26.808594 26.828125 0 2.769531-.109375 5.730469-.222656 8.871094-.535157 14.898437-1.144532 31.789063 9.152343 42.46875 4.621094 4.792969 10.902344 7.664063 18.71875 8.574219 1.800781.210937 3.6875.316406 5.652344.316406h4.664063v26.007812c0 25.320313-4.355469 34.886719-50.539063 34.886719l-137.078125.054688c-4.171875.003906-7.554688 3.386719-7.554688 7.5625.003907 4.171875 3.386719 7.554687 7.558594 7.554687h.003906l137.074219-.058594c49.699219 0 65.652344-12.148437 65.652344-50v-26.894531c11.046875-2.933593 19.230469-12.914062 19.996094-25.484375l2.035156-33.394531c.421875-6.863281-2.027344-13.492187-6.890625-18.667969zm-442.710938 6.492188c6.449219 0 11.695313 5.257812 11.695313 11.714844 0 .757812.007813 1.523437.019531 2.292968.035156 2.304688.121094 4.664063.210938 7.121094.242187 6.6875.5 13.882812-.359375 19.972656-.664063 4.738282-2.011719 8.808594-4.566407 11.457032-2.769531 2.871093-7.183593 4.269531-13.492187 4.269531h-12.984375c-6.25 0-11.285156-5.234375-11.710938-12.171875l-2.03125-33.40625c-.164062-2.65625.835938-5.28125 2.816407-7.386719 2.308593-2.457031 5.550781-3.863281 8.890625-3.863281zm94.742188-75.636719h-35.773438l6.421876-21.152344c4.5-13.867187 13.378906-18.097656 29.351562-22.863281zm136.328125-8.863281c.457031.09375.917969.175781 1.382813.238281.917968.125 1.828124.1875 2.726562.1875 6.535156 0 12.539062-3.21875 17.164062-9.285156l26.257813-35.058594 14.136719 4.300781v48.480469h-61.667969zm32.152344-48.597656-22.941407 30.625c-2.601562 3.421874-4.621093 3.3125-5.382812 3.273437-2.226562-.121094-4.464844-1.664063-5.554688-2.769531-.113281-.132813-.234374-.261719-.355468-.386719-.0625-.078125-.136719-.164063-.183594-.230469l-9.796875-24.140625c1.976563-.585937 3.996094-1.261719 6.074219-2.035156 6.734375-2.511719 13.269531-5.921875 19.46875-10.015625zm36.261719-94.320313c0 2.847656-1.730469 6.253906-4.628907 9.113281-.5.492188-1.023437.945313-1.558593 1.375.003906-.199218.015624-.402344.015624-.601562l.207032-19.339844h4.96875c.53125 0 .996094.46875.996094 1.003906zm-116.140626-121.433594h34.550782c3.710937 0 6.726562 3.011719 6.726562 6.714844v24.75c0 3.703125-3.015625 6.710937-6.726562 6.710937h-34.550782c-3.695312 0-6.699218-3.007812-6.699218-6.710937v-24.75c0-3.703125 3.003906-6.714844 6.699218-6.714844zm-21.8125 16.308594v15.15625c0 12.035156 9.785157 21.828125 21.8125 21.828125h34.550782c12.042968 0 21.84375-9.792969 21.84375-21.828125v-14.992187c19.238281 11.132812 32.855468 29.867187 37.480468 51.769531h-153.425781c4.636719-22.019531 18.355469-40.820313 37.738281-51.933594zm-53.789062 114.246094c-2.898438-2.863281-4.632812-6.273438-4.632812-9.121094v-8.449219c0-.527344.460937-1.003906.96875-1.003906h5l.203124 19.257812c0 .226563.015626.457032.019532.683594-.539063-.429687-1.0625-.878906-1.558594-1.367187zm18.074219 12.25c-.035157-.847657-.210938-1.65625-.503907-2.410157-.589843-3.125-.917968-6.21875-.917968-9.234374l-.203125-19.171876 61.6875.050782h.003906c4.171875 0 7.554687-3.378906 7.558594-7.550782.003906-4.175781-3.378907-7.5625-7.550781-7.566406l-69.308594-.054687c-.007813 0-.015625 0-.023438 0-.003906 0-.003906 0-.003906 0h-1.578125c-1.167969 0-2.15625-.992188-2.15625-2.164063v-9.15625c0-1.1875.988281-2.191406 2.15625-2.191406h171.628906c1.183594 0 2.183594 1.003906 2.183594 2.191406v9.15625c0 1.171875-1 2.164063-2.183594 2.164063h-66.222656c-4.175781 0-7.558594 3.382812-7.558594 7.554687 0 4.175782 3.382813 7.558594 7.558594 7.558594h58.019531l-.203125 19.257812c0 2.925782-.308593 5.921876-.871093 8.960938-.367188.867188-.578126 1.816406-.59375 2.816406-6.03125 25.453125-30.046876 52.882813-56.929688 62.914063-13.652344 5.082031-23.316406 5.089843-36.9375.023437-6.6875-2.480468-13.199219-6.046875-19.304688-10.390625-.042968-.03125-.085937-.0625-.132812-.089843-18.453125-13.171876-33.132812-33.464844-37.613281-52.667969zm45.707031 130.410156h-61.667969v-48.457031l14.167969-4.316406 26.265625 35.097656c4.589844 6.023437 10.589844 9.238281 17.125 9.238281.894531 0 1.808594-.0625 2.722656-.1875.46875-.0625.929688-.144531 1.386719-.238281zm2.085938-26.722656c-.121094.128906-.246094.257812-.359376.394531-1.09375 1.101562-3.328124 2.648438-5.554687 2.765625-.761719.039063-2.777344.148437-5.34375-3.21875l-22.957031-30.675781 18.636718-5.679688c6.230469 4.113282 12.804688 7.535156 19.574219 10.046875 2.050781.761719 4.046875 1.425781 6 2.007813l-9.8125 24.132812c-.042969.066406-.121093.148438-.183593.226563zm13.03125 7.726562c.4375-.699219.804687-1.394531 1.078124-2.078125l11.117188-27.328125c.820312.035157 1.640625.0625 2.460938.0625.828124 0 1.65625-.027343 2.484374-.066406l11.089844 27.320313c.277344.683593.644532 1.386718 1.085938 2.085937v19h-29.316406zm121.210937 18.996094v-44.042969c16.027344 4.78125 24.929687 8.996094 29.4375 22.890625l6.417969 21.152344zm126.664063 86.890625-2.03125 33.398438c-.425782 6.941406-5.460938 12.171874-11.710938 12.171874h-12.984375c-6.308594 0-10.722656-1.394531-13.492187-4.265624-2.558594-2.652344-3.902344-6.71875-4.570313-11.457032-.855469-6.089844-.597656-13.285156-.355469-19.972656.117188-3.277344.230469-6.375.230469-9.414062 0-6.460938 5.246094-11.714844 11.695313-11.714844h21.511718c3.339844 0 6.582032 1.40625 8.890625 3.863281 1.980469 2.105469 2.980469 4.730469 2.816407 7.390625zm0 0"/></svg>