<?xml version="1.0" encoding="iso-8859-1"?>
<!-- Generator: Adobe Illustrator 16.0.0, SVG Export Plug-In . SVG Version: 6.00 Build 0)  -->
<!DOCTYPE svg PUBLIC "-//W3C//DTD SVG 1.1//EN" "http://www.w3.org/Graphics/SVG/1.1/DTD/svg11.dtd">
<svg version="1.1" id="Capa_1" xmlns="http://www.w3.org/2000/svg" xmlns:xlink="http://www.w3.org/1999/xlink" x="0px" y="0px"
	 width="544.623px" height="544.623px" viewBox="0 0 544.623 544.623" style="enable-background:new 0 0 544.623 544.623;"
	 xml:space="preserve">
<g>
	<path d="M294.689,251.781l-0.719-3.724c-0.019-0.042-0.019-0.075-0.047-0.115c-0.01-0.046-0.01-0.091-0.037-0.137
		c-0.042-0.087-0.08-0.159-0.112-0.229c-0.028-0.026-0.037-0.054-0.047-0.082c-0.084-0.086-0.153-0.154-0.242-0.21
		c-0.01,0-0.023,0-0.033-0.005l-62.791-20.748c-0.493-0.271-1.216-0.019-1.827,0.646l-51.809,56.269
		c-0.301,0.261-0.579,0.606-0.803,1.021c-0.625,1.157-0.588,2.395,0.091,2.772c0.019,0.005,0.028,0.005,0.028,0.01l21.401,11.732
		l1.646,0.905l8.081,4.42l1.715,0.938l20.918,11.467l0.501,0.28l3.342,1.829c0.488,0.266,1.174,0.023,1.797-0.625l57.977-63.622
		C294.437,253.788,294.847,252.622,294.689,251.781z M274.48,246.265l-7.852,8.574l-3.045,1.171l-12.108-4.688l-0.01-2.485
		l7.183-7.853L274.48,246.265z M234.934,262.945l-0.172,2.672l-6.49,7.115l-3.313,1.281l-10.576-4.674l-0.009-2.366l6.809-7.439
		l2.978-1.043L234.934,262.945z M225.476,254.833l6.618-7.234l2.829-0.985l11.294,4.368l-0.149,2.294l-6.737,7.351l-3.017,1.169
		l-10.809-4.476L225.476,254.833z M223.754,275.219l-0.166,2.618l-6.18,6.754l-2.826,1.087l-10.522-4.956l-0.017-2.46l5.99-6.543
		l3.239-1.137L223.754,275.219z M224.848,277.913l2.8-0.98l11.714,5.185l-0.163,2.665l-6.375,6.964l-2.933,1.125l-11.78-5.535
		l-0.016-2.049L224.848,277.913z M229.002,275.798l-0.019-2.397l6.944-7.588l3.225-1.127l11.784,4.868l-0.161,2.604l-7.241,7.906
		l-2.618,1.003L229.002,275.798z M240.166,263.393l-0.009-2.198l7.283-7.946l2.404-0.852l12.58,4.87l-0.126,2.308l-6.928,7.561
		l-3.188,1.232L240.166,263.393z M257.618,240.646l-6.755,7.397l-3.935,1.521l-10.644-4.121l-0.019-2.399l6.672-7.292
		L257.618,240.646z M229.198,231.169l12.718,4.238l-6.424,7.017l-3.517,1.354l-10.602-4.103L229.198,231.169z M220.218,240.923
		l10.805,4.182l-0.147,2.371l-6.293,6.881l-3.246,1.251l-10.599-4.387L220.218,240.923z M209.589,252.47l10.647,4.401l-0.133,2.385
		l-6.681,7.283l-2.854,1.104l-10.629-4.692L209.589,252.47z M198.799,264.186l10.356,4.574l-0.168,2.644l-5.801,6.331l-3.013,1.171
		l-10.412-4.897L198.799,264.186z M180.485,284.078l8.149-8.854l10.188,4.793l-0.168,2.66l-6.919,7.565L180.485,284.078z
		 M192.629,290.738l7.155-7.822l2.982-1.041l10.12,4.77l-0.187,3.09l-7.315,7.99L192.629,290.738z M206.278,298.214l7.727-8.438
		l3.188-1.12l11.171,5.265l-0.178,2.903l-8.181,8.918L206.278,298.214z M232.423,312.551l-11.521-6.314l8.515-9.302l3.068-1.083
		l10.625,5.004L232.423,312.551z M244.219,299.628l-10.638-5.013l-0.01-2.222l6.558-7.154l3.507-1.237l10.59,4.677L244.219,299.628z
		 M255.364,287.452l-10.771-4.761l-0.017-2.314l7.381-8.06l3.052-1.071l10.998,4.557L255.364,287.452z M267.153,274.552
		l-10.986-4.543v-2.275l7.068-7.724l3.302-1.16l11.052,4.282L267.153,274.552z M278.737,261.874l-11.047-4.272l-0.026-2.436
		l7.843-8.55l13.17,4.382L278.737,261.874z M379.013,282.252l-0.84-4.35c-0.019-0.052-0.028-0.089-0.056-0.136
		c-0.01-0.061-0.023-0.111-0.052-0.163c-0.037-0.103-0.089-0.182-0.126-0.28c-0.028-0.023-0.047-0.056-0.061-0.088
		c-0.089-0.104-0.182-0.183-0.284-0.248c-0.01,0-0.02-0.004-0.028-0.004l-73.45-24.271c-0.57-0.315-1.41-0.019-2.124,0.761
		l-60.614,65.817c-0.343,0.308-0.672,0.709-0.926,1.195c-0.73,1.353-0.688,2.8,0.105,3.233c0.009,0.005,0.019,0.01,0.028,0.015
		l25.034,13.716l1.916,1.064l9.453,5.176l2,1.092l24.483,13.423l0.588,0.317l3.888,2.138c0.574,0.308,1.396,0.027,2.104-0.737
		l67.813-74.407C378.724,284.6,379.196,283.233,379.013,282.252z M355.384,275.798l-9.186,10.029l-3.57,1.377l-14.154-5.488
		l-0.015-2.903l8.405-9.178L355.384,275.798z M309.128,295.311l-0.2,3.118l-7.612,8.321l-3.874,1.503l-12.372-5.471l-0.005-2.758
		l7.977-8.704l3.468-1.214L309.128,295.311z M298.068,285.828l7.733-8.461l3.309-1.153l13.208,5.101l-0.168,2.688l-7.878,8.602
		l-3.533,1.372l-12.644-5.231L298.068,285.828z M296.042,309.663l-0.188,3.066l-7.233,7.905l-3.295,1.27l-12.314-5.801l-0.014-2.875
		l7.008-7.658l3.78-1.326L296.042,309.663z M297.331,312.822l3.28-1.144l13.698,6.062l-0.191,3.113l-7.453,8.144l-3.444,1.326
		l-13.782-6.479l-0.009-2.389L297.331,312.822z M302.179,310.343l-0.019-2.795l8.126-8.882l3.761-1.315l13.787,5.688l-0.191,3.043
		l-8.471,9.245l-3.053,1.182L302.179,310.343z M315.243,295.833l-0.01-2.571l8.513-9.297l2.819-0.994l14.72,5.689l-0.158,2.707
		l-8.098,8.835l-3.729,1.441L315.243,295.833z M335.661,269.225l-7.91,8.655l-4.602,1.778l-12.447-4.821l-0.015-2.802l7.804-8.534
		L335.661,269.225z M302.417,258.147l14.869,4.957l-7.505,8.205l-4.116,1.582l-12.405-4.797L302.417,258.147z M291.917,269.549
		l12.639,4.896l-0.183,2.771l-7.369,8.047l-3.789,1.465l-12.396-5.124L291.917,269.549z M279.479,283.055l12.456,5.152l-0.158,2.786
		l-7.822,8.527l-3.342,1.288l-12.426-5.488L279.479,283.055z M266.856,296.762l12.114,5.349l-0.196,3.09l-6.788,7.416l-3.519,1.367
		l-12.176-5.735L266.856,296.762z M245.437,320.028l9.535-10.356l11.916,5.61l-0.196,3.112l-8.098,8.85L245.437,320.028z
		 M259.637,327.813l8.382-9.144l3.484-1.218l11.836,5.577l-0.215,3.612l-8.566,9.353L259.637,327.813z M275.607,336.568l9.033-9.875
		l3.729-1.303l13.059,6.156l-0.201,3.393l-9.572,10.432L275.607,336.568z M306.188,353.337l-13.479-7.397l9.97-10.88l3.584-1.26
		l12.424,5.848L306.188,353.337z M319.994,338.22l-12.447-5.861l-0.014-2.604l7.673-8.368l4.098-1.447l12.391,5.475L319.994,338.22z
		 M333.024,323.976l-12.601-5.572l-0.02-2.712l8.635-9.427l3.57-1.251l12.867,5.32L333.024,323.976z M346.811,308.883l-12.854-5.312
		v-2.655l8.266-9.04l3.869-1.358l12.918,5.008L346.811,308.883z M360.35,294.06l-12.924-4.998l-0.009-2.852l9.156-10.002
		l15.411,5.134L360.35,294.06z M543.63,323.131l-113.055-77.73c-0.569-0.532-1.345-0.779-2.465-0.793
		c-0.289,0.037-0.56,0.114-0.83,0.238l-189.323-42.515c-0.761,0-1.496,0.296-2.065,0.829l-27.942,26.094l-57.335-67.194
		c-1.003-1.129-2.768-1.23-3.904-0.21c-1.129,1.017-1.225,2.765-0.196,3.899l57.405,67.276l-54.294,50.708
		c-0.707,0.658-1.066,1.624-0.952,2.529c0.091,0.947,0.628,1.807,1.449,2.32l14.155,8.61l4.172,110.54l0.425,1.498
		c0.164,0.275,0.359,0.518,0.583,0.724l167.289,122.842c0.518,0.388,1.167,0.598,1.82,0.598c0.522,0,1.063-0.149,1.236-0.294
		l180.938-65.419l0.569-0.312c0.205-0.14,0.364-0.289,0.476-0.392l0.616-0.742c0.149-0.295,0.257-0.607,0.308-0.98l0.313-131.761
		l19.335-5.152c1.083-0.294,1.919-1.148,2.176-2.222C544.797,325.045,544.461,323.902,543.63,323.131z M156.746,285.445
		l51.146-47.763l2.49,2.917c0.196,0.219,0.43,0.406,0.675,0.548c0.999,0.583,2.322,0.488,3.229-0.338
		c1.129-1.024,1.234-2.763,0.201-3.902l-2.555-2.996l27.162-25.366l183.738,42.106L314.468,381.418L156.746,285.445z
		 M170.544,301.005l124.093,75.518l-120.212,27.363L170.544,301.005z M335.498,524.288l-156.781-115.1l123.431-28.096l11.64,7.08
		c0.485,0.298,1.036,0.447,1.596,0.447l0.225-0.032c0.107,0.019,0.232,0.032,0.373,0.032l19.518-5.096V524.288z M341.621,525.917
		V381.922l6.272-1.671L512.09,464.33L341.621,525.917z M516.71,459.821l-160.006-81.907l160.16-42.563L516.71,459.821z
		 M348.118,373.849c-0.467,0-0.929,0.116-1.363,0.331l-23.783,6.347L429.39,252.635l106.003,71.229L348.118,373.849z M122.581,55.58
		C94.49,39.285,58.374,48.885,42.079,76.976c-16.293,28.091-6.697,64.203,21.4,80.5c28.082,16.29,64.201,6.69,80.493-21.396
		C160.27,107.988,150.667,71.873,122.581,55.58z M134.419,130.54c-13.243,22.82-42.592,30.626-65.412,17.388
		c-22.829-13.243-30.618-42.587-17.38-65.412c13.243-22.832,42.575-30.635,65.409-17.392
		C139.858,78.367,147.662,107.715,134.419,130.54z M39.885,50.936L29.288,39.121c-0.765-0.856-0.894-2.051-0.438-3.02
		c0.152-0.332,0.378-0.623,0.658-0.875c1.13-1.024,2.887-0.927,3.895,0.201l10.601,11.819c1.013,1.136,0.917,2.879-0.224,3.899
		c-0.908,0.816-2.215,0.917-3.218,0.333c0,0,0,0-0.009-0.004C40.314,51.333,40.081,51.146,39.885,50.936z M82.484,30.055
		l-1.639-15.782c-0.158-1.514,0.94-2.875,2.462-3.029c1.524-0.159,2.887,0.947,3.048,2.467l1.626,15.784
		c0.152,1.519-0.947,2.873-2.476,3.027c-0.593,0.07-1.171-0.068-1.668-0.355c-0.726-0.42-1.267-1.19-1.349-2.103L82.484,30.055z
		 M160.818,75.9c-0.616-1.396,0.019-3.02,1.409-3.64l14.5-6.434c1.405-0.625,3.041,0.019,3.652,1.414
		c0.611,1.391-0.021,3.013-1.417,3.643l-14.499,6.429c-0.837,0.371-1.769,0.294-2.504-0.136
		C161.46,76.885,161.063,76.456,160.818,75.9z M168.916,119.222l68.833,14.975c1.5,0.314,2.436,1.792,2.121,3.288
		c-0.329,1.487-1.792,2.436-3.288,2.107l-68.823-14.972c-0.301-0.063-0.565-0.168-0.812-0.311c-1.008-0.583-1.563-1.764-1.304-2.968
		C165.952,119.85,167.429,118.898,168.916,119.222z M104.134,182.015l8.286,80.491c0.164,1.514-0.931,2.879-2.462,3.029
		c-0.597,0.063-1.178-0.077-1.661-0.359c-0.742-0.429-1.267-1.19-1.363-2.107l-8.291-80.489c-0.159-1.514,0.94-2.882,2.464-3.036
		C102.61,179.402,103.98,180.496,104.134,182.015z M57.228,170.829c0.649,0.858,0.754,2.053,0.177,3.047l-7.957,13.721
		c-0.766,1.318-2.448,1.773-3.785,0.994c-1.307-0.758-1.759-2.445-0.994-3.771l7.958-13.719c0.763-1.326,2.455-1.773,3.769-1.01
		C56.731,170.282,57.013,170.537,57.228,170.829z M25.799,136.166c0.306,0.693,0.301,1.452,0.045,2.117
		c-0.255,0.653-0.756,1.223-1.454,1.523l-14.51,6.429c-0.835,0.378-1.762,0.287-2.5-0.145c-0.492-0.284-0.894-0.702-1.141-1.26
		c-0.301-0.703-0.301-1.454-0.049-2.114c0.128-0.329,0.315-0.635,0.574-0.892c0.233-0.268,0.534-0.495,0.889-0.637l14.51-6.429
		C23.56,134.138,25.184,134.775,25.799,136.166z M17.695,92.853L2.187,89.521c-0.292-0.056-0.565-0.173-0.803-0.306
		c-1.008-0.588-1.578-1.773-1.323-2.968c0.084-0.383,0.243-0.707,0.448-1.008c0.616-0.884,1.715-1.355,2.844-1.113l15.511,3.33
		c1.496,0.317,2.453,1.799,2.133,3.279C20.657,92.221,19.191,93.173,17.695,92.853L17.695,92.853z M129.201,38.213l0.004-0.009
		l7.962-13.726c0.763-1.318,2.455-1.773,3.771-1.003c1.328,0.772,1.771,2.458,1.008,3.776l-7.971,13.74
		c-0.761,1.314-2.448,1.771-3.771,0.999C128.891,41.219,128.436,39.527,129.201,38.213z"/>
</g>
<g>
</g>
<g>
</g>
<g>
</g>
<g>
</g>
<g>
</g>
<g>
</g>
<g>
</g>
<g>
</g>
<g>
</g>
<g>
</g>
<g>
</g>
<g>
</g>
<g>
</g>
<g>
</g>
<g>
</g>
</svg>
