<svg height="48" viewBox="0 0 48 48" width="48" xmlns="http://www.w3.org/2000/svg" xmlns:xlink="http://www.w3.org/1999/xlink"><linearGradient id="a"><stop offset="0" stop-color="#0197ec"/><stop offset="1" stop-color="#38b7ff"/></linearGradient><linearGradient id="b" x1="118.916187%" x2="73.802399%" xlink:href="#a" y1="71.628296%" y2="0%"/><linearGradient id="c" x1="119.904563%" x2="65.110085%" xlink:href="#a" y1="28.753551%" y2="-22.100053%"/><g fill="none" fill-rule="evenodd" transform="translate(1)"><path d="m7.9 10.9666667c0 .5522847-.44771525 1-1 1s-1-.4477153-1-1v-9.20000003c0-.55228475.44771525-1 1-1s1 .44771525 1 1z" fill="url(#b)" fill-rule="nonzero"/><path d="m20.1666667 10.9666667c0 .5522847-.4477153 1-1 1-.5522848 0-1-.4477153-1-1v-9.20000003c0-.55228475.4477152-1 1-1 .5522847 0 1 .44771525 1 1z" fill="url(#b)" fill-rule="nonzero"/><g stroke-linecap="round" stroke-linejoin="round" stroke-width="2"><path d="m13.0333333 37.0333333c0 2.3950667 1.6928 9.2 9.2 9.2s8.6403334-13.8 16.8666667-13.8c5.2700667 0 6.1333333 3.0666667 6.1333333 3.0666667" stroke="#cfd4d8"/><path d="m2.65389333 10.9666667h20.75826667c1.0426667 0 1.8875333.8341333 1.8875333 1.8614666v4.6552c0 2.9302-1.3984 5.6902-3.7735333 7.4474-2.3766667 1.7587334-3.8931333 4.5172-3.8931333 7.4474v2.7937334c0 1.0273333-.8448667 1.8614666-1.8875334 1.8614666h-5.4249333c-1.04266667 0-1.88753333-.8341333-1.88753333-1.8614666v-2.7937334c0-2.9302-1.51646667-5.6886666-3.8916-7.4474-2.37666667-1.7572-3.77506667-4.5172-3.77506667-7.4474v-4.6552c0-1.0273333.84486667-1.8614666 1.88753333-1.8614666z" stroke="url(#c)"/><path d="m16.1 21.7c0 1.6943333-1.3723333 3.0666667-3.0666667 3.0666667-1.6943333 0-3.06666663-1.3723334-3.06666663-3.0666667s1.37233333-3.0666667 3.06666663-3.0666667c1.6943334 0 3.0666667 1.3723334 3.0666667 3.0666667z" stroke="#cfd4d8"/></g></g></svg>