<svg height="496pt" viewBox="0 0 496 496" width="496pt" xmlns="http://www.w3.org/2000/svg"><path d="m288 200h80v32h-80zm0 0" fill="#a66d43"/><path d="m448 200h40v32h-40zm0 0" fill="#a66d43"/><path d="m328 168h80v32h-80zm0 0" fill="#a66d43"/><g fill="#c18e59"><path d="m408 168h80v32h-80zm0 0"/><path d="m248 232h80v32h-80zm0 0"/><path d="m408 232h80v32h-80zm0 0"/><path d="m368 200h80v32h-80zm0 0"/></g><path d="m328 232h80v32h-80zm0 0" fill="#a66d43"/><path d="m72 328h-16c-13.257812 0-24-10.742188-24-24s10.742188-24 24-24h16" fill="#db9b7c"/><path d="m184 280h16c13.257812 0 24 10.742188 24 24s-10.742188 24-24 24h-16" fill="#efbe9a"/><path d="m192 240v72c0 35.34375-28.65625 64-64 64s-64-28.65625-64-64v-72" fill="#db9b7c"/><path d="m116 374.839844c29.609375-5.625 52-31.601563 52-62.839844v-80h-104v80c0 31.238281 22.390625 57.214844 52 62.839844zm0 0" fill="#efbe9a"/><path d="m248 488v-32c0-44.183594-35.816406-80-80-80h-80c-44.183594 0-80 35.816406-80 80v32" fill="#568e53"/><path d="m144 376h-56c-44.183594 0-80 35.816406-80 80v32h216v-32c0-44.183594-35.816406-80-80-80zm0 0" fill="#7ecb92"/><path d="m168 456 15.6875-78.441406c-5.070312-1.007813-10.320312-1.558594-15.6875-1.558594h-8l-32 40zm0 0" fill="#568e53"/><path d="m88 456 40-40-32-40h-8c-5.367188 0-10.617188.550781-15.6875 1.558594zm0 0" fill="#568e53"/><path d="m96 376 32 40 32-40" fill="#db9b7c"/><path d="m144 224v8c0 26.511719-21.488281 48-48 48h-48v-40c0-30.929688 25.070312-56 56-56h48c30.929688 0 56 25.070312 56 56v40h-40c-13.257812 0-24-10.742188-24-24zm0 0" fill="#976947"/><path d="m183.496094 193.703125c-8.976563-6.117187-19.816406-9.703125-31.496094-9.703125h-48c-30.929688 0-56 25.070312-56 56v40h48c26.511719 0 48-21.488281 48-48v24c0 8.296875 4.207031 15.609375 10.609375 19.921875 18.09375-18.195313 29.390625-43.664063 29.390625-71.921875 0-3.480469-.175781-6.910156-.503906-10.296875zm0 0" fill="#c18e59"/><path d="m96 288h-48v-16h48c22.054688 0 40-17.945312 40-40v-8h16v8c0 30.878906-25.121094 56-56 56zm0 0"/><path d="m128 384c-39.695312 0-72-32.304688-72-72v-32h16v32c0 30.878906 25.121094 56 56 56s56-25.121094 56-56v-32h16v32c0 39.695312-32.304688 72-72 72zm0 0"/><path d="m208 288h-40c-17.648438 0-32-14.351562-32-32v-32h16v32c0 8.824219 7.175781 16 16 16h40zm0 0"/><path d="m64 336h-8c-17.648438 0-32-14.351562-32-32s14.351562-32 32-32h8v16h-8c-8.824219 0-16 7.175781-16 16s7.175781 16 16 16h8zm0 0"/><path d="m200 336h-8v-16h8c8.824219 0 16-7.175781 16-16s-7.175781-16-16-16h-8v-16h8c17.648438 0 32 14.351562 32 32s-14.351562 32-32 32zm0 0"/><path d="m216 280h-16v-40c0-26.472656-21.527344-48-48-48h-48c-26.472656 0-48 21.527344-48 48v40h-16v-40c0-35.289062 28.710938-64 64-64h48c35.289062 0 64 28.710938 64 64zm0 0"/><path d="m248 496h-240c-4.414062 0-8-3.585938-8-8v-32c0-48.519531 39.480469-88 88-88h80c48.519531 0 88 39.480469 88 88v32c0 4.414062-3.585938 8-8 8zm-232-16h224v-24c0-39.695312-32.304688-72-72-72h-80c-39.695312 0-72 32.304688-72 72zm0 0"/><path d="m128 424c-2.433594 0-4.726562-1.105469-6.246094-3l-32-40 12.492188-9.992188 25.753906 32.183594 25.753906-32.191406 12.492188 9.992188-32 40c-1.519532 1.902343-3.8125 3.007812-6.246094 3.007812zm0 0"/><path d="m88 464c-.777344 0-1.550781-.113281-2.320312-.34375-2.824219-.855469-4.953126-3.191406-5.527344-6.089844l-16-80 15.6875-3.140625 13.070312 65.34375 29.433594-29.433593 11.3125 11.3125-40 40c-1.519531 1.527343-3.566406 2.351562-5.65625 2.351562zm0 0"/><path d="m168 464c-2.089844 0-4.136719-.824219-5.65625-2.34375l-40-40 11.3125-11.3125 29.433594 29.433594 13.070312-65.34375 15.6875 3.140625-16 80c-.574218 2.890625-2.703125 5.234375-5.527344 6.089843-.769531.222657-1.542968.335938-2.320312.335938zm0 0"/><path d="m192 464h16v24h-16zm0 0"/><path d="m48 464h16v24h-16zm0 0"/><path d="m408 128c-17.648438 0-32-14.351562-32-32h16c0 8.824219 7.175781 16 16 16s16-7.175781 16-16-7.175781-16-16-16c-17.648438 0-32-14.351562-32-32s14.351562-32 32-32 32 14.351562 32 32h-16c0-8.824219-7.175781-16-16-16s-16 7.175781-16 16 7.175781 16 16 16c17.648438 0 32 14.351562 32 32s-14.351562 32-32 32zm0 0"/><path d="m400 0h16v24h-16zm0 0"/><path d="m400 120h16v24h-16zm0 0"/><path d="m496 272h-88c-4.414062 0-8-3.585938-8-8v-32c0-4.414062 3.585938-8 8-8h80v16h-72v16h80zm0 0"/><path d="m496 240h-48c-4.414062 0-8-3.585938-8-8v-32c0-4.414062 3.585938-8 8-8h48v16h-40v16h40zm0 0"/><path d="m408 272h-80c-4.414062 0-8-3.585938-8-8v-32c0-4.414062 3.585938-8 8-8h80c4.414062 0 8 3.585938 8 8v32c0 4.414062-3.585938 8-8 8zm-72-16h64v-16h-64zm0 0"/><path d="m368 240h-80c-4.414062 0-8-3.585938-8-8v-32c0-4.414062 3.585938-8 8-8h80c4.414062 0 8 3.585938 8 8v32c0 4.414062-3.585938 8-8 8zm-72-16h64v-16h-64zm0 0"/><path d="m448 240h-80c-4.414062 0-8-3.585938-8-8v-32c0-4.414062 3.585938-8 8-8h80c4.414062 0 8 3.585938 8 8v32c0 4.414062-3.585938 8-8 8zm-72-16h64v-16h-64zm0 0"/><path d="m488 208h-80c-4.414062 0-8-3.585938-8-8v-32c0-4.414062 3.585938-8 8-8h88v16h-80v16h72zm0 0"/><path d="m408 208h-80c-4.414062 0-8-3.585938-8-8v-32c0-4.414062 3.585938-8 8-8h80c4.414062 0 8 3.585938 8 8v32c0 4.414062-3.585938 8-8 8zm-72-16h64v-16h-64zm0 0"/><path d="m328 272h-80c-4.414062 0-8-3.585938-8-8v-32c0-4.414062 3.585938-8 8-8h80c4.414062 0 8 3.585938 8 8v32c0 4.414062-3.585938 8-8 8zm-72-16h64v-16h-64zm0 0"/></svg>