<?xml version="1.0" encoding="utf-8"?>
<!-- Generator: Adobe Illustrator 16.0.0, SVG Export Plug-In . SVG Version: 6.00 Build 0)  -->
<!DOCTYPE svg PUBLIC "-//W3C//DTD SVG 1.1//EN" "http://www.w3.org/Graphics/SVG/1.1/DTD/svg11.dtd">
<svg version="1.1" id="Layer_1" xmlns="http://www.w3.org/2000/svg" xmlns:xlink="http://www.w3.org/1999/xlink" x="0px" y="0px"
	 width="210px" height="140px" viewBox="-0.5 -0.5 210 140" enable-background="new -0.5 -0.5 210 140" xml:space="preserve">
<g>
	<g>
		<g>
			<g>
				<path fill="#FFFFFF" d="M81.745,14.803H66.37c-14.56,0-26.4,11.844-26.4,26.401v11.858h12.765V41.204
					c0-7.519,6.118-13.636,13.637-13.636h15.375L81.745,14.803L81.745,14.803z"/>
				<path fill="#E6E6E6" d="M81.745,14.803h15.378c14.559,0,26.4,11.844,26.4,26.401v24.66h-12.766v-24.66
					c0-7.519-6.117-13.636-13.636-13.636H81.745V14.803z"/>
			</g>
			<g>
				<path fill="#CDCFD1" d="M81.745,14.803H66.37c-14.56,0-26.4,11.844-26.4,26.401v24.66h12.765v-24.66
					c0-7.519,6.118-13.636,13.637-13.636h15.375L81.745,14.803L81.745,14.803z"/>
				<path fill="#B0B2B4" d="M81.745,14.803h15.378c14.559,0,26.4,11.844,26.4,26.401v24.66h-12.766v-24.66
					c0-7.519-6.117-13.636-13.636-13.636H81.745V14.803z"/>
			</g>
		</g>
		<g>
			<g>
				<rect x="34.491" y="63.964" fill="#4D4D4D" width="47.254" height="74.271"/>
				<rect x="81.745" y="63.964" fill="#313131" width="47.256" height="74.271"/>
			</g>
			<g>
				<rect x="34.491" y="63.964" fill="#3A4553" width="47.254" height="74.271"/>
				<rect x="81.745" y="63.964" fill="#222E3E" width="47.256" height="74.271"/>
			</g>
		</g>
		<circle fill="#57606C" cx="81.747" cy="101.1" r="19.148"/>
		<path fill="#222E3E" d="M88.71,97.302c0-3.847-3.117-6.963-6.965-6.963c-3.845,0-6.963,3.116-6.963,6.963
			c0,2.992,1.889,5.542,4.536,6.526v5.605c0,1.334,1.094,2.426,2.427,2.426c1.336,0,2.428-1.092,2.428-2.426v-5.605
			C86.821,102.844,88.71,100.294,88.71,97.302z"/>
	</g>
	<g>
		<g>
			<path fill="#282828" d="M159.073,138.5L159.073,138.5L159.073,138.5L159.073,138.5z"/>
			<path fill="#7F8285" d="M148.188,61.348c-6.065,6.064-6.065,15.707,0,21.771c1.865,1.867,4.043,3.111,6.221,3.732v46.981
				c0,2.488,2.178,4.666,4.666,4.666s4.666-2.178,4.666-4.666l-0.002-5.909h7.777v-9.332h-7.775v-4.666h6.221v-9.33h-6.221
				l-0.002-17.744c2.334-0.777,4.512-2.021,6.223-3.73c6.064-6.066,6.064-15.709,0-21.773
				C163.895,55.282,154.252,55.281,148.188,61.348z M165.294,78.455c-3.422,3.421-9.021,3.421-12.44,0
				c-3.422-3.423-3.422-9.021,0-12.441c3.42-3.423,9.02-3.423,12.44,0C168.715,69.436,168.716,75.032,165.294,78.455z"/>
		</g>
	</g>
	<g>
		<g>
			<path fill="#282828" d="M159.073,138.5L159.073,138.5L159.073,138.5L159.073,138.5z"/>
			<path fill="#A7A9AB" d="M159.073,138.5c2.487,0,4.666-2.178,4.666-4.666l-0.001-5.909h7.775v-9.332h-7.774v-4.666h6.221v-9.331
				h-6.221l-0.001-17.742c2.332-0.778,4.511-2.021,6.222-3.731c6.063-6.065,6.063-15.709,0-21.772
				c-3.033-3.033-6.96-4.55-10.887-4.55V138.5z M165.294,78.455c-1.711,1.71-3.966,2.566-6.221,2.566s-4.511-0.856-6.222-2.566
				c-3.422-3.423-3.422-9.021,0-12.441c1.711-1.712,3.967-2.565,6.222-2.565s4.51,0.854,6.221,2.565
				C168.716,69.436,168.716,75.032,165.294,78.455z"/>
		</g>
	</g>
	<circle fill="#FFFFFF" cx="159.141" cy="72.079" r="9.43"/>
</g>
</svg>
