<svg height="512pt" viewBox="0 0 512 512" width="512pt" xmlns="http://www.w3.org/2000/svg"><path d="m256 121c8.269531 0 15 6.730469 15 15s-6.730469 15-15 15c-5.339844 0-10.320312-2.878906-13.003906-7.511719-4.144532-7.171875-13.324219-9.621093-20.492188-5.472656-7.171875 4.148437-9.621094 13.324219-5.476562 20.496094 5.429687 9.382812 14.023437 16.351562 23.972656 19.882812v16.40625c0 8.285157 6.714844 15 15 15s15-6.714843 15-15v-16.378906c17.460938-6.195313 30-22.867187 30-42.421875 0-24.8125-20.1875-45-45-45-8.269531 0-15-6.730469-15-15s6.730469-15 15-15c5.339844 0 10.320312 2.878906 13.003906 7.511719 4.144532 7.171875 13.324219 9.621093 20.492188 5.472656 7.171875-4.148437 9.621094-13.324219 5.476562-20.496094-5.429687-9.382812-14.023437-16.351562-23.972656-19.882812v-18.605469c0-8.285156-6.714844-15-15-15s-15 6.714844-15 15v18.578125c-17.460938 6.195313-30 22.867187-30 42.421875 0 24.8125 20.1875 45 45 45zm0 0"/><path d="m316 301c0-33.085938-26.914062-60-60-60s-60 26.914062-60 60 26.914062 60 60 60 60-26.914062 60-60zm-60 30c-16.542969 0-30-13.457031-30-30s13.457031-30 30-30 30 13.457031 30 30-13.457031 30-30 30zm0 0"/><path d="m496 331c0-33.085938-26.914062-60-60-60s-60 26.914062-60 60 26.914062 60 60 60 60-26.914062 60-60zm-60 30c-16.542969 0-30-13.457031-30-30s13.457031-30 30-30 30 13.457031 30 30-13.457031 30-30 30zm0 0"/><path d="m136 361c0-33.085938-26.914062-60-60-60s-60 26.914062-60 60 26.914062 60 60 60 60-26.914062 60-60zm-60 30c-16.542969 0-30-13.457031-30-30s13.457031-30 30-30 30 13.457031 30 30-13.457031 30-30 30zm0 0"/><path d="m76 421c-20.03125 0-39.046875 7.980469-53.53125 22.46875-14.488281 14.484375-22.46875 33.5-22.46875 53.53125 0 8.285156 6.714844 15 15 15h121c8.285156 0 15-6.714844 15-15 0-20.03125-7.757812-39-21.847656-53.410156-14.238282-14.566406-33.113282-22.589844-53.152344-22.589844zm-43.386719 61c6.378907-17.832031 23.675781-31 43.386719-31 19.28125 0 36.199219 13.167969 42.441406 31zm0 0"/><path d="m489.53125 413.464844c-14.484375-14.484375-33.5-22.464844-53.53125-22.464844-20.039062 0-38.914062 8.023438-53.152344 22.589844-14.089844 14.410156-21.847656 33.378906-21.847656 53.410156 0-58.449219-47.101562-106-105-106s-105 47.550781-105 106v30c0 8.285156 6.714844 15 15 15h180c8.285156 0 15-6.714844 15-15 0 8.285156 6.714844 15 15 15h121c8.285156 0 15-6.714844 15-15v-30c0-20.035156-7.980469-39.046875-22.46875-53.535156zm-158.53125 68.535156h-150v-15c0-41.90625 33.644531-76 75-76s75 34.09375 75 76zm151 0h-91v-15c0-24.933594 20.605469-46 45-46 24.933594 0 46 21.066406 46 46zm0 0"/></svg>