<svg height="35" viewBox="0 0 52 35" width="52" xmlns="http://www.w3.org/2000/svg"><g fill="none" fill-rule="evenodd" transform="translate(1 1)"><path d="m.83333333 28.426c0 2.25 1.88166667 4.0733333 4.20333334 4.0733333h39.92666663c2.3216667 0 4.2033334-1.8233333 4.2033334-4.0733333v-14.26h-48.33333337z" stroke="#cfd4d8" stroke-linecap="round" stroke-linejoin="round" stroke-width="2"/><path d="m44.9638333.83333333h-39.9283333c-2.32 0-4.20166667 1.99-4.20166667 4.445v2.22166667h48.33333337v-2.22166667c0-2.455-1.8816667-4.445-4.2033334-4.445z" stroke="#cfd4d8" stroke-linecap="round" stroke-linejoin="round" stroke-width="2"/><path d="m7 22.6085819c-.55228475 0-1-.4477153-1-1 0-.5522848.44771525-1 1-1h8c.5522847 0 1 .4477152 1 1 0 .5522847-.4477153 1-1 1z" fill="#21b573" fill-rule="nonzero"/><path d="m22 25.6085819c.5522847 0 1 .4477152 1 1 0 .5522847-.4477153 1-1 1h-15c-.55228475 0-1-.4477153-1-1 0-.5522848.44771525-1 1-1z" fill="#21b573" fill-rule="nonzero"/><g stroke="#21b573" stroke-linecap="round" stroke-linejoin="round" stroke-width="2"><path d="m36.6666667 23.3333333c0-1.0483333.4933333-1.9716666 1.25-2.5833333-.5716667-.4616667-1.29-.75-2.0833334-.75-1.8416666 0-3.3333333 1.4916667-3.3333333 3.3333333 0 1.8416667 1.4916667 3.3333334 3.3333333 3.3333334.7933334 0 1.5116667-.2883334 2.0833334-.75-.7566667-.6116667-1.25-1.535-1.25-2.5833334z"/><path d="m43.3333333 23.3333333c0 1.8416667-1.4933333 3.3333334-3.3333333 3.3333334-1.8416667 0-3.3333333-1.4916667-3.3333333-3.3333334 0-1.8416666 1.4916666-3.3333333 3.3333333-3.3333333 1.84 0 3.3333333 1.4916667 3.3333333 3.3333333z"/></g></g></svg>