<svg height="46" viewBox="0 0 46 46" width="46" xmlns="http://www.w3.org/2000/svg"><g fill="none" fill-rule="evenodd" stroke-linecap="round" stroke-linejoin="round" stroke-width="2" transform="translate(1 1)"><g stroke="#cfd4d8"><path d="m21.75 12.29415-12.294-12.294-9.456 9.4575 12.294 12.2925"/><path d="m21.75 31.20705 12.294 12.294 9.456-9.4575-12.294-12.2925"/><path d="m12.29355 2.8377-2.8365 2.8365"/><path d="m15.1305 5.6745-1.8915 1.8915"/><path d="m17.96745 8.5116-2.8365 2.8365"/><path d="m34.98915 25.53315-2.8365 2.8365"/><path d="m37.8261 28.3701-1.8915 1.8915"/><path d="m40.66305 31.20705-2.8365 2.8365"/></g><g stroke="#21b573"><path d="m38.28435 1.1091 4.107 4.107c1.4775 1.4775 1.4775 3.8715 0 5.349l-29.1525 29.1525-13.239 3.783 3.783-13.239 29.1525-29.1525c1.4775-1.4775 3.8715-1.4775 5.349 0z"/><path d="m3.78255 30.2616 9.456 9.456"/><path d="m11.3478 32.1528 26.478-26.478"/></g></g></svg>