<svg height="48" viewBox="0 0 48 48" width="48" xmlns="http://www.w3.org/2000/svg"><g fill="none" fill-rule="evenodd" stroke-linecap="round" stroke-linejoin="round" stroke-width="2" transform="translate(1 .891418)"><path d="m16.06412 15.19104-3.2966667-.8249333-.3772-1.5026667c.92-.8234 1.5333334-2.0638667 1.6314667-3.29666667h.0383333c.4032667 0 .7436667-.30053333.7942667-.70073333l.1993333-1.6008c.0598-.4738-.3082-.89086667-.7850666-.897l.0981333-2.001.4002-.4002c.5167333-.55046667.5167333-1.2098 0-2.001-.5213333-.79426667-1.426-1.19906667-2.6956-1.19906667-.6716 0-1.8369333.03526667-2.90413333.8004-3.2246.03066667-3.60026667 1.37386667-3.60026667 2.79986667 0 .5014.1886 1.99946667.1886 1.99946667h-.0828c-.48146667 0-.85253333.42166666-.79426667.89853333l.20086667 1.6008c.04906667.4002.38946667.70073333.79426667.70073333h.1288c.0966 1.20059997.67926666 2.40733337 1.55633333 3.23073337l-.39253333 1.5686-3.29666667.8249333c-1.82313333.4554-3.10346667 2.0945333-3.10346667 3.9744v.0015333h18.39999997v-.0015333c0-1.8798667-1.2788-3.519-3.1019333-3.9744z" stroke="#cfd4d8"/><path d="m42.1307867 15.19104-3.2966667-.8249333-.3772-1.5026667c.92-.8234 1.5333333-2.0638667 1.6314667-3.29666667h.0383333c.4032667 0 .7436667-.30053333.7942667-.70073333l.1993333-1.6008c.0598-.4738-.3082-.89086667-.7850667-.897l.0981334-2.001.4002-.4002c.5167333-.55046667.5167333-1.2098 0-2.001-.5213334-.79426667-1.426-1.19906667-2.6956-1.19906667-.6716 0-1.8369334.03526667-2.9041334.8004-3.2246.03066667-3.6002666 1.37386667-3.6002666 2.79986667 0 .5014.1886 1.99946667.1886 1.99946667h-.0828c-.4814667 0-.8525334.42166666-.7942667.89853333l.2008667 1.6008c.0490666.4002.3894666.70073333.7942666.70073333h.1288c.0966 1.20059997.6792667 2.40733337 1.5563334 3.23073337l-.3925334 1.5686-3.2966666.8249333c-1.8231334.4554-3.1034667 2.0945333-3.1034667 3.9744v.0015333h18.4v-.0015333c0-1.8798667-1.2788-3.519-3.1019333-3.9744z" stroke="#cfd4d8"/><path d="m28.0722667 40.9263533-3.5726667-.8924-.4063333-1.6284c.9951333-.8924 1.6606-2.2356 1.7664-3.5726666h.0414c.437 0 .8065333-.3250667.8602-.759l.2177333-1.7326667c.0628667-.5136667-.3342667-.966-.851-.9721333l.1058-2.1696667.4324-.4324c.5612-.5964667.5612-1.311 0-2.1666-.5627333-.8617333-1.5456-1.3002667-2.9194667-1.3002667-.7268 0-1.9887333.0383334-3.1464.8663334-3.4929333.0352666-3.9008 1.4904-3.9008 3.0329333 0 .5443333.2054667 2.1666.2054667 2.1666h-.0904667c-.5213333 0-.9246.4569333-.8586666.9752l.2162 1.7326667c.0536666.4339333.4232.759.8602.759h.1410666c.1027334 1.3002666.7344667 2.6097333 1.6851334 3.5006l-.4247334 1.7004666-3.5726666.8924c-1.9749334.4937334-3.3610667 2.2693334-3.3610667 4.3040667v.0030667h19.9333333v-.0030667c0-2.0347333-1.3861333-3.8103333-3.3610666-4.3040667z" stroke="#21b573"/><g stroke="#cfd4d8"><path d="m8.43333333 23.7666667 4.59999997 4.6"/><path d="m36.0333333 23.7666667-4.6 4.6"/></g></g></svg>